<svg width="9" height="11" viewBox="0 0 9 11" fill="none" xmlns="http://www.w3.org/2000/svg">
<path d="M7.98738 2.24419C7.25482 1.12791 6.04552 0.5 4.68505 0.5C3.33621 0.5 2.12691 1.12791 1.3711 2.24419C0.615284 3.33721 0.440865 4.73256 0.905981 5.95349C1.03389 6.27907 1.23156 6.61628 1.48738 6.9186L4.42924 10.3837C4.499 10.4535 4.56877 10.5 4.67342 10.5C4.77807 10.5 4.84784 10.4535 4.91761 10.3837L7.8711 6.9186C8.12691 6.61628 8.33621 6.2907 8.45249 5.95349C8.91761 4.73256 8.74319 3.33721 7.98738 2.24419ZM4.68505 6.36047C3.68505 6.36047 2.85947 5.53488 2.85947 4.53488C2.85947 3.53488 3.68505 2.7093 4.68505 2.7093C5.68505 2.7093 6.51063 3.53488 6.51063 4.53488C6.51063 5.53488 5.69668 6.36047 4.68505 6.36047Z" fill="#8291A3"/>
</svg>
